<?xml version="1.0" standalone="no"?>
<!DOCTYPE svg PUBLIC "-//W3C//DTD SVG 20010904//EN"
 "http://www.w3.org/TR/2001/REC-SVG-20010904/DTD/svg10.dtd">
<svg version="1.0" xmlns="http://www.w3.org/2000/svg"
 width="815.000000pt" height="815.000000pt" viewBox="0 0 815.000000 815.000000"
 preserveAspectRatio="xMidYMid meet">
<metadata>
Created by potrace 1.14, written by Peter Selinger 2001-2017
</metadata>
<g transform="translate(0.000000,815.000000) scale(0.100000,-0.100000)"
fill="#000000" stroke="none">
<path d="M210 5379 c0 -50 3 -68 11 -63 8 5 10 -3 7 -25 -4 -27 -1 -34 16 -41
12 -4 24 -6 27 -4 3 2 5 -8 3 -23 -1 -14 3 -35 11 -47 8 -13 12 -44 10 -81 -3
-59 -2 -59 15 -37 18 21 19 22 25 3 3 -10 5 -23 4 -27 -5 -31 2 -56 16 -51 20
8 29 -10 30 -63 0 -25 5 -44 10 -43 6 1 15 -3 22 -9 10 -8 9 -13 -2 -24 -13
-14 -11 -44 3 -42 25 3 31 -7 34 -54 2 -43 7 -53 23 -58 18 -4 21 -13 20 -53
-1 -34 4 -52 17 -64 10 -8 14 -21 11 -27 -14 -21 -8 -41 21 -68 15 -16 23 -28
16 -28 -10 0 -10 -3 0 -15 7 -8 9 -15 4 -15 -4 0 3 -12 17 -26 18 -20 24 -37
24 -72 0 -30 4 -47 13 -48 6 -1 17 -2 22 -3 17 -2 11 -21 -7 -21 -14 0 -12 -5
10 -25 26 -25 31 -42 29 -94 -1 -13 1 -21 5 -18 11 12 41 -34 39 -58 -2 -14 3
-26 11 -30 11 -4 14 -17 11 -45 -2 -22 0 -40 5 -40 19 0 41 -34 42 -69 3 -52
3 -52 23 -49 14 2 17 -5 19 -42 2 -70 3 -74 9 -67 9 9 34 -19 34 -38 0 -8 6
-18 13 -20 8 -4 12 -29 11 -80 -1 -66 4 -82 20 -72 2 1 16 -11 30 -28 16 -19
22 -33 16 -40 -6 -7 -5 -16 2 -23 7 -7 8 -12 3 -12 -5 0 2 -12 16 -26 16 -17
24 -38 25 -67 1 -23 2 -47 3 -53 0 -6 13 -10 29 -8 15 2 22 2 17 -1 -18 -9 -4
-77 21 -102 16 -16 21 -30 18 -49 -3 -14 1 -33 8 -42 7 -8 14 -34 14 -56 2
-67 3 -69 17 -58 8 7 16 6 24 -3 8 -9 9 -16 3 -20 -6 -4 -5 -13 2 -25 7 -10
15 -17 19 -14 8 5 22 -14 25 -33 1 -7 -1 -11 -4 -10 -13 4 -14 -14 -2 -42 l12
-29 216 0 c119 0 224 2 233 4 11 3 15 12 12 24 -3 11 1 27 8 36 7 9 14 23 15
32 2 8 7 18 11 21 5 3 9 17 9 31 0 18 5 26 21 28 23 3 38 28 23 37 -7 4 -6 13
0 26 7 13 7 19 0 19 -5 0 -1 14 9 30 10 18 17 44 15 60 -3 26 0 30 20 30 21 0
24 5 24 43 0 23 1 47 1 53 1 7 12 15 25 18 18 4 23 11 19 25 -3 10 2 30 9 42
8 13 14 31 14 39 -1 8 4 20 10 27 6 6 11 27 10 45 -2 35 33 76 54 63 5 -3 10
0 11 7 0 7 1 32 2 56 2 24 7 46 13 50 6 4 10 22 8 41 -2 25 4 39 22 56 19 18
24 32 24 75 0 42 3 51 15 46 9 -3 19 3 25 14 6 11 7 20 3 20 -4 0 -1 5 9 10
10 6 15 20 13 36 -1 14 3 28 10 30 8 3 12 21 11 46 -2 32 2 42 16 46 14 3 15
8 7 23 -6 13 -6 19 0 19 6 0 8 6 5 14 -3 9 2 13 18 12 21 -1 23 3 22 49 0 29
5 53 12 57 7 5 11 21 10 37 -2 25 2 30 28 35 25 5 28 9 16 16 -8 5 -10 10 -5
10 7 0 9 15 7 35 -3 28 1 40 21 59 14 13 24 32 23 42 -2 11 3 27 12 37 8 9 11
17 7 17 -4 0 0 9 10 20 10 11 15 20 10 20 -4 0 -1 8 6 17 10 11 10 14 2 9 -18
-10 -16 -1 3 18 8 9 16 29 16 45 1 17 4 30 7 29 33 -3 38 4 37 53 0 28 5 54
11 57 5 4 9 19 9 35 -1 15 3 27 9 27 5 0 4 4 -3 9 -10 6 -6 11 16 20 27 11 29
16 26 57 -3 40 -1 46 22 54 21 8 24 15 20 40 -2 19 0 30 7 30 8 0 8 3 -1 8 -9
7 -5 18 17 45 17 23 27 45 24 56 -7 27 13 59 39 63 20 3 23 9 24 51 0 26 6 53
12 59 7 7 12 29 12 50 0 21 4 38 9 38 5 0 11 11 13 25 l5 25 -239 0 c-158 0
-237 -3 -233 -10 3 -6 0 -13 -8 -16 -9 -3 -14 -17 -13 -35 2 -27 -1 -30 -21
-26 -12 2 -20 1 -18 -4 3 -4 1 -11 -5 -14 -8 -5 -7 -11 1 -21 6 -8 7 -14 2
-14 -6 0 -8 -11 -6 -25 4 -19 0 -27 -19 -36 -20 -9 -25 -18 -23 -45 1 -19 -4
-39 -10 -44 -6 -5 -12 -35 -13 -66 -1 -54 -14 -80 -34 -68 -8 5 -11 -14 -8
-58 1 -14 -3 -29 -9 -33 -6 -3 -11 1 -11 10 0 9 -6 15 -12 12 -7 -2 -13 -17
-13 -33 0 -16 -4 -34 -8 -41 -4 -6 -3 -14 1 -17 13 -8 8 -56 -6 -65 -7 -4 -12
-14 -10 -21 2 -7 -5 -14 -15 -15 -28 -5 -30 -9 -31 -86 -1 -71 -2 -73 -33 -88
-26 -13 -31 -21 -29 -43 2 -16 -2 -28 -8 -28 -7 0 -7 -3 -1 -8 22 -16 3 -94
-21 -85 -15 6 -16 1 -17 -64 0 -24 -4 -44 -8 -44 -5 -1 -13 -3 -19 -4 -5 -1
-16 -3 -22 -4 -8 -1 -9 -4 -3 -9 15 -11 17 -32 3 -32 -10 0 -10 -2 0 -9 18
-11 16 -17 -9 -42 -16 -16 -18 -23 -9 -29 8 -5 9 -10 2 -14 -6 -4 -9 -13 -6
-21 4 -8 -3 -15 -18 -17 -20 -3 -23 -9 -24 -45 -2 -68 -3 -71 -21 -69 -14 1
-18 -8 -20 -38 -1 -22 -8 -43 -14 -47 -7 -4 -12 -28 -10 -58 1 -50 -4 -58 -41
-52 -4 0 -5 -15 -4 -34 3 -31 1 -35 -19 -35 -27 0 -41 -15 -25 -25 8 -5 8 -11
0 -20 -6 -8 -7 -16 -2 -19 12 -7 2 -59 -13 -68 -7 -4 -11 -20 -9 -36 2 -22 -2
-32 -20 -41 -20 -11 -23 -20 -22 -73 1 -54 -1 -61 -22 -69 -13 -5 -21 -13 -18
-18 3 -5 0 -14 -8 -20 -16 -14 -24 0 -21 37 1 18 -3 22 -19 20 -19 -3 -21 2
-21 54 0 31 -3 54 -7 51 -5 -2 -8 0 -8 5 0 6 -8 9 -17 8 -19 -1 -24 35 -10 68
6 12 5 16 -1 12 -15 -9 -26 13 -28 54 -2 57 -3 60 -23 60 -16 0 -19 7 -17 40
0 22 -2 41 -6 41 -5 1 -12 2 -17 3 -19 2 -22 16 -24 87 -2 67 -4 74 -22 74
-13 0 -19 6 -17 16 1 9 -4 19 -12 22 -9 4 -13 18 -12 41 1 20 -3 38 -9 40 -6
3 -6 7 1 13 17 12 0 48 -22 48 -15 0 -19 8 -19 40 0 34 -3 40 -22 43 -26 4
-30 20 -8 28 9 4 13 15 11 27 -3 12 -5 32 -5 44 -1 16 -6 20 -21 16 -18 -5
-20 0 -20 40 0 55 -8 77 -25 71 -16 -7 -22 11 -20 64 1 34 -2 42 -16 42 -23 0
-34 19 -16 26 9 3 13 13 10 25 -3 12 -11 18 -19 15 -15 -6 -26 26 -29 84 -3
45 -2 45 -20 30 -16 -13 -16 -13 -19 53 0 15 -6 31 -12 35 -5 4 -11 25 -12 46
-2 25 -10 46 -23 57 -12 10 -20 31 -21 53 -1 21 -10 45 -22 58 -12 13 -22 37
-22 56 -1 19 -5 37 -10 41 -5 3 -10 13 -12 21 -2 8 -10 22 -18 31 -11 12 -11
18 -1 28 6 7 8 12 2 11 -5 -2 -14 -2 -20 -1 -12 1 -13 70 -2 89 5 6 4 12 -2
12 -6 0 -10 3 -9 8 3 16 -15 42 -30 42 -8 0 -13 3 -10 6 4 3 -2 14 -13 25 -18
18 -35 19 -234 19 l-215 0 0 -71z"/>
<path d="M5025 5258 c0 -106 -3 -201 -7 -210 -5 -9 -5 -19 -1 -21 10 -6 9
-289 0 -304 -4 -7 -4 -14 0 -16 10 -6 9 -289 0 -304 -4 -7 -4 -14 0 -16 10 -6
9 -289 0 -304 -4 -7 -4 -14 0 -16 10 -6 9 -289 0 -304 -4 -7 -4 -14 0 -16 10
-6 9 -289 0 -304 -4 -7 -4 -14 0 -16 7 -5 10 -276 3 -302 -1 -5 -1 -12 0 -15
7 -16 5 -90 -3 -90 -4 0 -5 -6 0 -12 11 -18 12 -68 1 -68 -5 0 -6 -6 -1 -12 4
-7 8 -47 8 -88 l0 -75 220 0 220 0 1 1343 1 1342 -222 0 -221 0 1 -192z"/>
<path d="M5755 5288 c0 -144 2 -165 18 -181 11 -11 26 -16 37 -12 10 3 21 1
25 -5 3 -6 11 -7 17 -4 16 10 139 11 145 2 2 -5 9 -5 15 -2 16 10 139 11 145
2 2 -5 9 -5 15 -2 16 10 139 11 144 2 3 -5 13 -4 22 0 9 5 40 7 67 5 63 -5 62
-5 108 0 21 2 40 0 43 -5 3 -4 14 -3 25 2 14 8 23 8 32 -2 14 -14 17 -68 4
-68 -5 0 -5 -5 -1 -12 9 -14 9 -103 -1 -117 -3 -6 -2 -11 3 -11 5 0 8 -12 6
-27 -4 -41 -6 -77 -4 -83 7 -20 7 -41 -1 -46 -5 -3 -7 -10 -3 -15 9 -16 10
-89 1 -89 -5 0 -5 -5 -2 -11 11 -16 12 -69 2 -69 -4 0 -5 -5 -2 -11 11 -17 11
-99 0 -99 -7 0 -7 -3 0 -8 12 -8 14 -232 2 -232 -5 0 -5 -6 0 -12 11 -19 12
-38 2 -38 -6 0 -7 -5 -4 -11 11 -16 12 -69 2 -69 -4 0 -5 -5 -1 -12 6 -9 9
-195 3 -224 -1 -5 0 -11 1 -14 7 -19 7 -41 -1 -46 -5 -3 -7 -10 -3 -15 9 -16
10 -89 1 -89 -5 0 -5 -5 -2 -11 11 -16 12 -69 2 -69 -4 0 -5 -5 -2 -11 11 -17
11 -99 0 -99 -7 0 -7 -3 0 -8 12 -8 14 -232 2 -232 -5 0 -5 -6 0 -12 11 -19
12 -38 2 -38 -6 0 -7 -5 -4 -11 11 -16 12 -69 2 -69 -4 0 -5 -5 -1 -12 8 -13
8 -214 -1 -227 -3 -5 -1 -12 4 -15 10 -7 9 -25 -2 -43 -5 -7 -4 -13 2 -13 6 0
8 -6 5 -14 -4 -11 33 -13 218 -13 l223 0 0 1146 c0 630 1 1155 3 1167 3 19 9
21 55 17 29 -2 57 -4 62 -4 6 1 57 1 115 1 58 0 112 0 120 0 8 0 60 1 115 1
55 0 109 0 120 0 11 -1 63 0 115 2 52 1 104 0 116 -4 42 -14 46 -1 45 162 0
85 0 164 0 177 l-1 22 -1088 0 -1087 0 0 -162z"/>
<path d="M3625 5279 c-43 -12 -83 -53 -90 -92 -4 -18 -5 -298 -3 -622 3 -655
1 -635 70 -671 71 -37 145 -13 180 57 16 31 17 82 11 629 -6 655 -6 646 -68
681 -43 24 -66 28 -100 18z"/>
<path d="M2981 5112 c-147 -92 -294 -233 -383 -369 -56 -85 -131 -238 -153
-313 -10 -36 -21 -69 -25 -75 -35 -54 -50 -458 -21 -575 68 -277 178 -477 366
-666 170 -171 351 -277 580 -341 96 -27 109 -28 330 -28 221 0 234 1 330 28
127 35 320 129 421 205 193 145 359 363 438 574 61 161 71 226 71 453 0 186
-3 220 -23 299 -77 297 -248 550 -502 740 -86 65 -164 116 -176 116 -2 0 -4
-62 -4 -139 l0 -138 38 -25 c156 -104 313 -321 382 -526 69 -209 65 -481 -10
-672 -60 -153 -125 -256 -234 -368 -129 -134 -275 -221 -462 -278 -82 -25
-103 -28 -264 -28 -211 -1 -284 15 -455 99 -185 90 -310 198 -417 360 -106
162 -155 299 -177 503 -17 161 27 389 105 544 70 139 193 288 297 363 l56 40
1 138 c0 75 -4 137 -8 137 -5 0 -50 -26 -101 -58z"/>
</g>
</svg>
